<?xml version="1.0" standalone="no"?><!DOCTYPE svg PUBLIC "-//W3C//DTD SVG 1.1//EN" "http://www.w3.org/Graphics/SVG/1.1/DTD/svg11.dtd"><svg t="1503327332641" class="icon" style="" viewBox="0 0 1024 1024" version="1.1" xmlns="http://www.w3.org/2000/svg" p-id="4800" xmlns:xlink="http://www.w3.org/1999/xlink" width="200" height="200"><defs><style type="text/css"></style></defs><path d="M644.496 17.648c-132.048-35.36-270.016-17.232-388.48 51.12C137.616 137.12 52.896 247.488 17.504 379.536-55.568 652.096 106.816 933.28 379.488 1006.336 423.552 1018.16 468.192 1024 512.512 1024c92.8 0 184.24-25.632 266.208-75.68 12.032-7.344 15.872-23.088 8.48-35.12-7.36-12.096-23.104-15.872-35.184-8.528-108.992 66.56-236.576 85.152-359.264 52.256C147.328 891.152 1.168 638.096 66.96 392.768c31.84-118.832 108.064-218.16 214.656-279.68 106.64-61.552 230.784-77.84 349.664-46.016 118.88 31.856 218.24 108.064 279.776 214.608 61.52 106.56 77.84 230.688 46.016 349.504-11.28 42-28.72 82.56-51.872 120.592-7.376 12.064-3.552 27.776 8.528 35.184 12.08 7.312 27.808 3.472 35.2-8.56 25.664-42.192 45.04-87.216 57.584-133.936C1079.552 371.872 917.168 90.672 644.496 17.648z" p-id="4801" fill="#ffcd32"></path><path d="M626.32 255.68 550.336 255.68 297.152 508.752 548.592 768.304 624.816 768.304 373.376 508.752Z" p-id="4802" fill="#ffcd32"></path></svg>