<?xml version="1.0" standalone="no"?><!DOCTYPE svg PUBLIC "-//W3C//DTD SVG 1.1//EN" "http://www.w3.org/Graphics/SVG/1.1/DTD/svg11.dtd"><svg t="1504058031794" class="icon" style="" viewBox="0 0 1024 1024" version="1.1" xmlns="http://www.w3.org/2000/svg" p-id="3828" xmlns:xlink="http://www.w3.org/1999/xlink" width="200" height="200"><defs><style type="text/css"></style></defs><path d="M512 92.91416c-231.466773 0-419.137004 187.670231-419.137004 419.137004C92.862996 743.517937 280.533227 931.188168 512 931.188168s419.137004-187.670231 419.137004-419.137004c0-231.569102-187.670231-419.137004-419.137004-419.137004z m0 785.881883c-202.507845 0-366.744879-164.237034-366.744879-366.744879 0-202.507845 164.237034-366.744879 366.744879-366.744878s366.744879 164.237034 366.744879 366.744878c0 202.507845-164.237034 366.744879-366.744879 366.744879z" fill="#cdcdcd" p-id="3829"></path><path d="M734.973519 512.051164H538.196063V275.877286c0-14.223643-11.767763-25.786749-26.196063-25.786749-14.4283 0-26.196063 11.563106-26.196063 25.786749v262.574598c0 6.344359 2.353553 12.074748 6.242031 16.577196 4.707105 5.62806 11.665434 9.311882 19.647047 9.311881h223.382832c14.325972 0 25.786749-11.767763 25.786749-26.196062 0-14.4283-11.563106-26.093734-25.889077-26.093735z" fill="#cdcdcd" p-id="3830"></path></svg>