<?xml version="1.0" standalone="no"?><!DOCTYPE svg PUBLIC "-//W3C//DTD SVG 1.1//EN" "http://www.w3.org/Graphics/SVG/1.1/DTD/svg11.dtd"><svg t="1504096350021" class="icon" style="" viewBox="0 0 1024 1024" version="1.1" xmlns="http://www.w3.org/2000/svg" p-id="1632" xmlns:xlink="http://www.w3.org/1999/xlink" width="200" height="200"><defs><style type="text/css"></style></defs><path d="M755.69152 495.69792l-35.0208 0c-13.74208-116.51072-106.92608-207.31904-218.5216-207.31904-111.45216 0-204.82048 90.89024-218.56256 207.31904l-35.00032 0c-40.8576 0-74.11712 35.26656-74.11712 78.60224l0 86.03648c0 43.33568 33.25952 78.60224 74.11712 78.60224l53.6576 0c5.44768 0 10.6496-2.1504 14.47936-6.00064s6.00064-9.05216 6.00064-14.47936l-0.02048-58.12224 0-35.10272c0-0.02048 0.02048-0.04096 0.02048-0.08192 0-1.18784 0-100.18816 0.02048-103.03488 1.59744-106.2912 82.08384-192.77824 179.4048-192.77824 97.71008 0 178.19648 86.85568 179.4048 193.59744 0.02048 2.02752 0.02048 49.17248 0.02048 78.72512 0 13.43488 0 23.22432 0 23.51104l0 93.30688c0 11.32544 9.15456 20.48 20.48 20.48l53.63712 0c40.87808 0 74.1376-35.26656 74.1376-78.60224l0-86.03648C829.8496 530.96448 796.59008 495.69792 755.69152 495.69792zM248.60672 697.97888c-18.28864 0-33.15712-16.87552-33.15712-37.64224l0-86.03648c0-20.76672 14.88896-37.64224 33.15712-37.64224l33.1776 0-0.02048 37.64224 0.02048 123.67872L248.60672 697.97888zM788.8896 660.33664c0 20.76672-14.88896 37.64224-33.1776 37.64224L722.5344 697.97888l0-72.82688c0-0.28672 0-10.3424 0-24.064l0-64.43008 33.15712 0c18.30912 0 33.1776 16.87552 33.1776 37.64224L788.86912 660.33664z" p-id="1633" fill="#cdcdcd"></path></svg>