<?xml version="1.0" standalone="no"?><!DOCTYPE svg PUBLIC "-//W3C//DTD SVG 1.1//EN" "http://www.w3.org/Graphics/SVG/1.1/DTD/svg11.dtd"><svg t="1503498731873" class="icon" style="" viewBox="0 0 1024 1024" version="1.1" xmlns="http://www.w3.org/2000/svg" p-id="16057" xmlns:xlink="http://www.w3.org/1999/xlink" width="200" height="200"><defs><style type="text/css"></style></defs><path d="M518.4 512m-480 0a480 480 0 1 0 960 0 480 480 0 1 0-960 0Z" fill="#EAEFF9" p-id="16058"></path><path d="M601.6 835.2c97.6-46.4 315.2-172.8 316.8-377.6 0-107.2-76.8-265.6-206.4-265.6-84.8 0-158.4 43.2-193.6 107.2-35.2-64-108.8-107.2-193.6-107.2-128 0-206.4 158.4-206.4 265.6 0 219.2 262.4 353.6 337.6 387.2 22.4 8 44.8 12.8 64 12.8 12.8 0 27.2-3.2 41.6-6.4 8-3.2 20.8-8 35.2-16h4.8z" fill="#F95C77" p-id="16059"></path><path d="M297.6 374.4c40 0 72-8 72-48s-32-24-72-24-72-16-72 24c0 38.4 32 48 72 48z" fill="#F6ABBA" p-id="16060"></path></svg>