<?xml version="1.0" standalone="no"?><!DOCTYPE svg PUBLIC "-//W3C//DTD SVG 1.1//EN" "http://www.w3.org/Graphics/SVG/1.1/DTD/svg11.dtd"><svg t="1502680711395" class="icon" style="" viewBox="0 0 1024 1024" version="1.1" xmlns="http://www.w3.org/2000/svg" p-id="3694" xmlns:xlink="http://www.w3.org/1999/xlink" width="200" height="200"><defs><style type="text/css"></style></defs><path d="M193.536 939.968l-21.248 0c-93.632 0-169.856-85.312-169.856-190.208s76.16-190.208 169.856-190.208l21.248 0c11.712 0 21.248 10.624 21.248 23.744l0 332.864C214.784 929.28 205.312 939.968 193.536 939.968zM172.352 607.04c-70.272 0-127.36 64-127.36 142.656 0 78.656 57.152 142.656 127.36 142.656L172.352 607.04z" p-id="3695" fill="#ffcd32"></path><path d="M193.536 939.968c-11.712 0-21.248-10.688-21.248-23.808L172.288 583.296c0-13.12 9.472-23.744 21.248-23.744s21.248 10.624 21.248 23.744l0 332.864C214.784 929.28 205.312 939.968 193.536 939.968z" p-id="3696" fill="#ffcd32"></path><path d="M236.032 987.52c-35.136 0-63.68-32-63.68-71.36 0-13.12 9.472-23.744 21.248-23.744s21.248 10.688 21.248 23.744 9.536 23.808 21.248 23.808c11.712 0 21.248-10.688 21.248-23.808L257.344 583.296c0-13.056-9.536-23.744-21.248-23.744-11.712 0-21.248 10.688-21.248 23.744 0 13.184-9.472 23.808-21.248 23.808s-21.248-10.624-21.248-23.808c0-39.296 28.544-71.296 63.68-71.296 35.072 0 63.68 32 63.68 71.296l0 332.864C299.712 955.52 271.104 987.52 236.032 987.52z" p-id="3697" fill="#ffcd32"></path><path d="M851.648 939.968l-21.248 0c-11.712 0-21.248-10.688-21.248-23.808L809.152 583.296c0-13.12 9.472-23.744 21.248-23.744l21.248 0c93.632 0 169.856 85.312 169.856 190.208S945.344 939.968 851.648 939.968zM851.648 607.04l0 285.312c70.272 0 127.36-64 127.36-142.656C979.008 671.04 921.92 607.04 851.648 607.04z" p-id="3698" fill="#ffcd32"></path><path d="M830.464 939.968c-11.712 0-21.248-10.688-21.248-23.808L809.216 583.296c0-13.12 9.472-23.744 21.248-23.744s21.248 10.624 21.248 23.744l0 332.864C851.648 929.28 842.176 939.968 830.464 939.968z" p-id="3699" fill="#ffcd32"></path><path d="M787.968 987.52c-35.072 0-63.68-32-63.68-71.36L724.288 583.296c0-39.296 28.608-71.296 63.68-71.296 35.136 0 63.68 32 63.68 71.296 0 13.184-9.472 23.808-21.248 23.808S809.216 596.416 809.216 583.296c0-13.056-9.536-23.744-21.248-23.744s-21.248 10.688-21.248 23.744l0 332.864c0 13.12 9.472 23.808 21.248 23.808s21.248-10.688 21.248-23.808 9.472-23.744 21.248-23.744 21.248 10.688 21.248 23.744C851.648 955.52 823.104 987.52 787.968 987.52z" p-id="3700" fill="#ffcd32"></path><path d="M729.6 226.688c-4.032 0-8.064-1.28-11.648-3.968-0.512-0.32-62.72-43.648-207.36-43.648-144.256 0-203.904 43.072-204.48 43.52-8.448 6.272-19.776 5.12-26.944-2.944l-38.08-42.944c-8.256-9.344-8.192-24.32 0.064-33.6 8.256-9.28 21.696-9.28 29.952 0.064l26.944 30.272c28.096-15.04 95.104-41.984 212.48-41.984 118.4 0 186.752 27.328 215.168 42.176l26.944-29.824c8.32-9.152 21.76-9.088 30.016 0.192 8.256 9.344 8.192 24.384-0.128 33.6l-38.08 42.048C740.416 224.32 735.04 226.688 729.6 226.688z" p-id="3701" fill="#ffcd32"></path><path d="M108.992 580.672" p-id="3702" fill="#ffcd32"></path><path d="M915.776 345.536c-8.128 0-15.936-5.248-19.392-14.144-47.552-119.936-198.272-247.424-384-247.424-185.728 0-336.384 127.424-383.936 247.296-4.736 12.032-17.344 17.344-28.032 12.032-10.688-5.312-15.552-19.328-10.752-31.36 54.272-136.896 216.896-275.52 422.72-275.52 205.888 0 368.512 138.688 422.784 275.648 4.736 12.032-0.064 26.048-10.816 31.424C921.536 344.896 918.656 345.536 915.776 345.536z" p-id="3703" fill="#ffcd32"></path><path d="M915.712 580.672" p-id="3704" fill="#ffcd32"></path><path d="M108.992 604.352 108.992 604.352c-11.776 0-21.248-10.688-21.248-23.744l0.128-259.008c0-13.12 9.472-23.808 21.248-23.808l0 0c11.712 0 21.248 10.688 21.248 23.808l-0.128 259.008C130.176 593.728 120.704 604.352 108.992 604.352z" p-id="3705" fill="#ffcd32"></path><path d="M915.712 604.352c-11.776 0-21.248-10.624-21.248-23.744L894.464 321.792c0-13.184 9.472-23.808 21.248-23.808 11.712 0 21.248 10.624 21.248 23.808l0 258.88C936.896 593.728 927.424 604.352 915.712 604.352z" p-id="3706" fill="#ffcd32"></path></svg>