<?xml version="1.0" standalone="no"?><!DOCTYPE svg PUBLIC "-//W3C//DTD SVG 1.1//EN" "http://www.w3.org/Graphics/SVG/1.1/DTD/svg11.dtd"><svg t="1503540321378" class="icon" style="" viewBox="0 0 1026 1024" version="1.1" xmlns="http://www.w3.org/2000/svg" p-id="2160" xmlns:xlink="http://www.w3.org/1999/xlink" width="200.390625" height="200"><defs><style type="text/css"></style></defs><path d="M714.402 223.424c0.176 0.288 0.24 0.576 0.368 0.864h268c22.768 0 41.2-18.48 41.2-41.2 0-22.704-18.432-41.184-41.2-41.184h-328.256c31.888 27.744 51.472 63.472 59.888 81.52z" p-id="2161" fill="#ffcd32"></path><path d="M982.77 471.424h-476.72c-6.448 26.736-13.2 54.592-20 82.368h496.72c22.768 0 41.2-18.464 41.2-41.184 0.016-22.704-18.432-41.184-41.2-41.184z" p-id="2162" fill="#ffcd32"></path><path d="M982.77 800.944h-565.552c-15.44 32.752-36.768 61.456-64.304 82.384h629.856c22.768 0 41.2-18.496 41.2-41.2 0.016-22.688-18.432-41.184-41.2-41.184z" p-id="2163" fill="#ffcd32"></path><path d="M464.658 345.84c10.448-40.608 33.504-29.2 53.632-12.256 43.504 36.768 43.504 36.768 87.376 84.144 13.984 15.104 31.792 15.888 46.8 5.696 18.032-12.208 35.2-84.448-1.552-167.824-13.008-29.568-57.008-110.736-141.152-112.576-29.184-0.624-43.776 18.672-48.272 33.504-35.984 117.632-131.776 474.048-131.776 474.048-17.28-37.536-75.344-77.952-141.696-84.096-106.4-9.856-185.824 56.256-187.984 152.752-1.92 87.6 78.8 160.72 179.952 162.96 93.056 2.016 152.48-63.008 178.144-143.504 24.016-75.456 86.768-316.128 106.528-392.848z" p-id="2164" fill="#ffcd32"></path></svg>