<?xml version="1.0" standalone="no"?><!DOCTYPE svg PUBLIC "-//W3C//DTD SVG 1.1//EN" "http://www.w3.org/Graphics/SVG/1.1/DTD/svg11.dtd"><svg t="1503540513577" class="icon" style="" viewBox="0 0 1024 1024" version="1.1" xmlns="http://www.w3.org/2000/svg" p-id="7195" xmlns:xlink="http://www.w3.org/1999/xlink" width="200" height="200"><defs><style type="text/css"></style></defs><path d="M512 1024c281.6 0 512-230.4 512-512s-230.4-512-512-512-512 230.4-512 512 230.4 512 512 512zM512 56.889c250.312 0 455.112 204.8 455.111 455.111s-204.8 455.112-455.111 455.111-455.112-204.8-455.111-455.111 204.8-455.112 455.111-455.111z" p-id="7196" fill="#ffcd32"></path><path d="M364.089 711.111l273.067-159.289v128c0 17.067 11.378 28.443 28.444 28.444 14.221 0 28.443-14.222 28.444-28.444v-338.489c0-17.067-11.378-28.443-28.444-28.444-14.221 0-28.443 14.222-28.444 28.444v153.601l-273.067-159.289c-14.222-8.533-34.133 2.844-34.133 19.911v335.644c0 17.067 19.911 28.444 34.133 19.911z" p-id="7197" fill="#ffcd32"></path></svg>