<?xml version="1.0" standalone="no"?><!DOCTYPE svg PUBLIC "-//W3C//DTD SVG 1.1//EN" "http://www.w3.org/Graphics/SVG/1.1/DTD/svg11.dtd"><svg t="1503540839331" class="icon" style="" viewBox="0 0 1024 1024" version="1.1" xmlns="http://www.w3.org/2000/svg" p-id="17595" xmlns:xlink="http://www.w3.org/1999/xlink" width="200" height="200"><defs><style type="text/css"></style></defs><path d="M512 0C229.248 0 0 229.248 0 512s229.248 512 512 512 512-229.248 512-512S794.752 0 512 0m0 76.8c240 0 435.2 195.2 435.2 435.2S752 947.2 512 947.2 76.8 752 76.8 512 272 76.8 512 76.8m172.608 403.264l-240-160a38.4 38.4 0 0 0-59.712 31.936v320a38.4 38.4 0 0 0 59.712 31.936l240-160c10.688-7.104 17.088-19.072 17.088-31.936s-6.4-24.832-17.088-31.936" fill="#ffcd32" p-id="17596"></path></svg>