<?xml version="1.0" standalone="no"?><!DOCTYPE svg PUBLIC "-//W3C//DTD SVG 1.1//EN" "http://www.w3.org/Graphics/SVG/1.1/DTD/svg11.dtd"><svg t="1503540455845" class="icon" style="" viewBox="0 0 1024 1024" version="1.1" xmlns="http://www.w3.org/2000/svg" p-id="4571" xmlns:xlink="http://www.w3.org/1999/xlink" width="200" height="200"><defs><style type="text/css"></style></defs><path d="M623.443255 733.126374a36.465656 36.465656 0 0 1-36.579433-36.522545v-369.207658c0-20.195488 16.327057-36.522545 36.579433-36.522545 20.195488 0 36.579434 16.327057 36.579434 36.522545v369.321435c0 20.081711-16.383945 36.408768-36.579434 36.408768m-220.557487 0a36.465656 36.465656 0 0 1-36.579433-36.522545v-369.207658c0-20.195488 16.327057-36.522545 36.579433-36.522545 20.195488 0 36.522545 16.327057 36.522545 36.522545v369.321435c0 20.081711-16.327057 36.408768-36.522545 36.408768M511.998293 72.989908a435.767436 435.767436 0 0 0-310.270965 128.511571A437.36032 437.36032 0 0 0 73.158867 512a437.189654 437.189654 0 0 0 128.568461 310.498521A435.767436 435.767436 0 0 0 511.998293 951.066981a435.767436 435.767436 0 0 0 310.270966-128.56846A437.474097 437.474097 0 0 0 950.837719 512a437.189654 437.189654 0 0 0-128.56846-310.498521A435.767436 435.767436 0 0 0 511.998293 72.989908M511.998293 1023.998293a508.983192 508.983192 0 0 1-199.338002-40.277199 509.324524 509.324524 0 0 1-162.70168-109.681412A510.860519 510.860519 0 0 1 0 512a510.860519 510.860519 0 0 1 149.958611-362.039682A509.324524 509.324524 0 0 1 312.660291 40.278906 506.87831 506.87831 0 0 1 511.998293 0.001707c69.11977 0 136.248435 13.596399 199.338003 40.277199a509.381413 509.381413 0 0 1 162.701679 109.681412A510.860519 510.860519 0 0 1 1023.996587 512a510.860519 510.860519 0 0 1-149.958612 362.039682 509.381413 509.381413 0 0 1-162.701679 109.681412A506.935199 506.935199 0 0 1 511.998293 1023.998293" p-id="4572" fill="#ffcd32"></path></svg>