<?xml version="1.0" standalone="no"?><!DOCTYPE svg PUBLIC "-//W3C//DTD SVG 1.1//EN" "http://www.w3.org/Graphics/SVG/1.1/DTD/svg11.dtd"><svg t="1503540669259" class="icon" style="" viewBox="0 0 1024 1024" version="1.1" xmlns="http://www.w3.org/2000/svg" p-id="15730" xmlns:xlink="http://www.w3.org/1999/xlink" width="200" height="200"><defs><style type="text/css"></style></defs><path d="M512 0C230.4 0 0 230.4 0 512s230.4 512 512 512 512-230.4 512-512S793.6 0 512 0zM512 967.111111C261.688889 967.111111 56.888889 762.311111 56.888889 512S261.688889 56.888889 512 56.888889s455.111111 204.8 455.111111 455.111111S762.311111 967.111111 512 967.111111z" p-id="15731" fill="#ffcd32"></path><path d="M659.911111 312.888889l-273.066667 159.288889 0-128c0-17.066667-11.377778-28.444444-28.444444-28.444444-14.222222 0-28.444444 14.222222-28.444444 28.444444L329.955556 682.666667c0 17.066667 11.377778 28.444444 28.444444 28.444444 14.222222 0 28.444444-14.222222 28.444444-28.444444l0-153.6 273.066667 159.288889c14.222222 8.533333 34.133333-2.844444 34.133333-19.911111L694.044444 332.8C694.044444 315.733333 674.133333 304.355556 659.911111 312.888889z" p-id="15732" fill="#ffcd32"></path></svg>