<?xml version="1.0" standalone="no"?><!DOCTYPE svg PUBLIC "-//W3C//DTD SVG 1.1//EN" "http://www.w3.org/Graphics/SVG/1.1/DTD/svg11.dtd"><svg t="1503498802190" class="icon" style="" viewBox="0 0 1024 1024" version="1.1" xmlns="http://www.w3.org/2000/svg" p-id="19138" xmlns:xlink="http://www.w3.org/1999/xlink" width="200" height="200"><defs><style type="text/css"></style></defs><path d="M627.2 518.4c-19.2 0-32-12.8-32-32v-128c0-6.4 0-12.8 6.4-19.2 12.8-12.8 32-12.8 44.8-6.4l108.8 64c12.8 6.4 19.2 12.8 19.2 25.6s-6.4 19.2-12.8 25.6l-108.8 64c-6.4 6.4-12.8 6.4-25.6 6.4z m0-160v134.4s0 6.4 6.4 0l108.8-64-115.2-70.4c6.4 0 6.4 0 0 0z" p-id="19139" fill="#ffcd32"></path><path d="M512 979.2c-256 0-467.2-211.2-467.2-467.2s211.2-467.2 467.2-467.2 467.2 211.2 467.2 467.2-211.2 467.2-467.2 467.2z m0-876.8c-224 0-409.6 185.6-409.6 409.6s185.6 409.6 409.6 409.6 409.6-185.6 409.6-409.6-185.6-409.6-409.6-409.6z" p-id="19140" fill="#ffcd32"></path><path d="M857.6 524.8c-6.4 0-12.8-6.4-12.8-12.8 0-147.2-102.4-281.6-243.2-320-6.4 0-12.8-12.8-12.8-19.2 0-6.4 12.8-12.8 19.2-12.8 160 44.8 268.8 185.6 268.8 352 0 6.4-6.4 12.8-19.2 12.8zM531.2 179.2h-19.2c-6.4 0-12.8-6.4-12.8-12.8s6.4-12.8 12.8-12.8h19.2c6.4 0 12.8 6.4 12.8 12.8s-6.4 12.8-12.8 12.8zM281.6 684.8c-25.6 0-44.8-6.4-44.8-6.4-6.4 0-12.8-12.8-6.4-19.2 0-6.4 12.8-12.8 19.2-6.4 6.4 0 115.2 38.4 192-115.2 70.4-140.8 172.8-128 172.8-128 6.4 0 12.8 6.4 12.8 19.2 0 6.4-6.4 12.8-19.2 12.8-6.4 0-83.2-12.8-140.8 108.8-57.6 115.2-134.4 134.4-185.6 134.4zM627.2 742.4c-6.4 0-19.2-6.4-25.6-12.8-6.4-6.4-6.4-12.8-6.4-19.2v-128c0-19.2 12.8-32 32-32 6.4 0 12.8 0 19.2 6.4l108.8 64c12.8 6.4 12.8 12.8 12.8 25.6s-6.4 19.2-19.2 25.6l-108.8 64s-6.4 6.4-12.8 6.4z m0-166.4l-6.4 134.4s6.4 6.4 6.4 0l108.8-64-108.8-70.4c6.4 0 6.4 0 0 0z" p-id="19141" fill="#ffcd32"></path><path d="M595.2 659.2c-38.4 0-121.6-12.8-153.6-128-19.2-57.6-51.2-102.4-89.6-115.2-51.2-25.6-102.4 0-102.4 0-6.4 6.4-12.8 0-19.2-6.4-6.4-6.4 0-12.8 6.4-19.2 0 0 64-25.6 128 0 44.8 19.2 83.2 64 102.4 134.4 38.4 128 140.8 108.8 140.8 108.8 6.4 0 12.8 6.4 19.2 12.8 0 6.4-6.4 12.8-12.8 19.2 0-6.4-6.4-6.4-19.2-6.4z" p-id="19142" fill="#ffcd32"></path></svg>