<?xml version="1.0" standalone="no"?><!DOCTYPE svg PUBLIC "-//W3C//DTD SVG 1.1//EN" "http://www.w3.org/Graphics/SVG/1.1/DTD/svg11.dtd"><svg t="1504006416498" class="icon" style="" viewBox="0 0 1024 1024" version="1.1" xmlns="http://www.w3.org/2000/svg" p-id="2370" xmlns:xlink="http://www.w3.org/1999/xlink" width="200" height="200"><defs><style type="text/css"></style></defs><path d="M672.357333 608.3232l-34.151467 0-12.8064-12.8064c42.689067-46.957867 68.302933-110.992 68.302933-179.294933 0-153.681067-123.799467-277.480533-277.480533-277.480533s-277.480533 123.799467-277.480533 277.480533 123.799467 277.480533 277.480533 277.480533c68.302933 0 132.337067-25.613867 179.294933-68.302933l12.8064 12.8064 0 34.151467 213.4464 213.4464 64.034133-64.034133L672.357333 608.3232zM416.2208 608.3232c-106.7232 0-192.1024-85.378133-192.1024-192.1024s85.378133-192.1024 192.1024-192.1024 192.101333 85.378133 192.101333 192.1024S522.944 608.3232 416.2208 608.3232z" p-id="2371" fill="#333333"></path></svg>