<?xml version="1.0" standalone="no"?><!DOCTYPE svg PUBLIC "-//W3C//DTD SVG 1.1//EN" "http://www.w3.org/Graphics/SVG/1.1/DTD/svg11.dtd"><svg t="1503499631100" class="icon" style="" viewBox="0 0 1024 1024" version="1.1" xmlns="http://www.w3.org/2000/svg" p-id="35999" xmlns:xlink="http://www.w3.org/1999/xlink" width="200" height="200"><defs><style type="text/css"></style></defs><path d="M528.2 383.6c-1-0.8-2.1-1.4-3.1-2.1 0.2 0.1 0.3 0.3 0.5 0.4-3.5-2.4-7.5-3.8-11.6-4.1-0.2 0-0.5-0.1-0.7-0.1h-1c-0.5 0-1 0-1.5 0.1-0.1 0-0.3 0.1-0.4 0.1-5.2 0.3-10.2 2.1-14 5.4L257.1 587.5c-10.3 8.8-11.5 23.2-2.7 33.6 4.4 5.2 10.2 8 16.2 8.5s12.2-1.5 17.4-5.9l224-191.3 224.5 191.8c4.5 3.9 10.7 5.8 16.9 5.5 6.2-0.3 12.3-2.9 16.7-8.1 8.8-10.3 6.4-25.8-2.7-33.6L528.2 383.6z" p-id="36000" fill="#ffcd32"></path><path d="M512.1 0C230 0 0.1 230 0.1 512s230 512 512 512 512-230 512-512-230-512-512-512z m0 976.4C255 976.4 47.6 769 47.6 512S255 47.6 512.1 47.6 976.5 255 976.5 512 769.1 976.4 512.1 976.4z" p-id="36001" fill="#ffcd32"></path></svg>